<?xml version="1.0" encoding="UTF-8" standalone="no"?>
<!-- Created with Inkscape (http://www.inkscape.org/) -->

<svg
   xmlns:dc="http://purl.org/dc/elements/1.1/"
   xmlns:cc="http://creativecommons.org/ns#"
   xmlns:rdf="http://www.w3.org/1999/02/22-rdf-syntax-ns#"
   xmlns:svg="http://www.w3.org/2000/svg"
   xmlns="http://www.w3.org/2000/svg"
   xmlns:sodipodi="http://sodipodi.sourceforge.net/DTD/sodipodi-0.dtd"
   xmlns:inkscape="http://www.inkscape.org/namespaces/inkscape"
   width="40"
   height="40"
   viewBox="0 0 10.583333 10.583334"
   version="1.1"
   id="svg5911"
   inkscape:version="0.92.3 (2405546, 2018-03-11)"
   sodipodi:docname="czat.svg">
  <defs
     id="defs5905" />
  <sodipodi:namedview
     id="base"
     pagecolor="#ffffff"
     bordercolor="#666666"
     borderopacity="1.0"
     inkscape:pageopacity="0.0"
     inkscape:pageshadow="2"
     inkscape:zoom="11.2"
     inkscape:cx="18.684549"
     inkscape:cy="19.722805"
     inkscape:document-units="px"
     inkscape:current-layer="layer1"
     showgrid="false"
     units="px"
     inkscape:window-width="1366"
     inkscape:window-height="716"
     inkscape:window-x="-8"
     inkscape:window-y="-8"
     inkscape:window-maximized="1" />
  <metadata
     id="metadata5908">
    <rdf:RDF>
      <cc:Work
         rdf:about="">
        <dc:format>image/svg+xml</dc:format>
        <dc:type
           rdf:resource="http://purl.org/dc/dcmitype/StillImage" />
        <dc:title />
      </cc:Work>
    </rdf:RDF>
  </metadata>
  <g
     inkscape:label="Layer 1"
     inkscape:groupmode="layer"
     id="layer1"
     transform="translate(0,-286.41665)">
    <path
       style="fill:#c8c8c8;fill-opacity:1;stroke:none;stroke-width:1;stroke-miterlimit:4;stroke-dasharray:none;stroke-opacity:1"
       d="M 15 8 C 9.4599999 8 5 10.675981 5 14 C 5 17.281248 9.3482488 19.92655 14.789062 19.994141 C 15.29866 19.082506 16.158101 18.287412 17.244141 17.662109 C 19.02617 16.636081 21.434167 16.023438 24.101562 16.023438 L 24.404297 16.023438 C 24.782595 15.391021 25 14.712429 25 14 C 25 10.675981 20.54 8 15 8 z M 17.037109 18.886719 C 16.572246 19.223066 16.186653 19.587047 15.892578 19.972656 C 15.947388 19.969754 16.004033 19.970212 16.058594 19.966797 C 16.308166 19.580949 16.649459 19.224478 17.037109 18.886719 z "
       transform="matrix(0.26458334,0,0,0.26458334,0,286.41665)"
       id="rect812" />
    <path
       style="fill:#c8c8c8;fill-opacity:1;stroke:#c8c8c8;stroke-width:0.26458335px;stroke-linecap:butt;stroke-linejoin:miter;stroke-opacity:1"
       d="m 7.2996655,293.29109 c 0.074171,0.48547 0.4742219,0.69937 0.9213167,0.87407 -0.1480102,-0.30711 -0.4793816,-0.61421 -0.283482,-0.92132"
       id="path820"
       inkscape:connector-curvature="0"
       sodipodi:nodetypes="ccc" />
    <path
       inkscape:connector-curvature="0"
       style="fill:#c8c8c8;fill-opacity:1;stroke:none;stroke-width:0.24293447;stroke-miterlimit:4;stroke-dasharray:none;stroke-opacity:1"
       d="m 6.4756474,290.83283 c -1.3739636,0 -2.4799521,0.63683 -2.4799521,1.42782 v 0.0765 c 0,0.791 1.1059885,1.42782 2.4799521,1.42782 h 0.088884 c 1.3739635,0 2.479952,-0.63682 2.479952,-1.42782 v -0.0765 c 0,-0.79099 -1.1059885,-1.42782 -2.479952,-1.42782 z"
       id="rect814" />
    <path
       style="fill:#c8c8c8;fill-opacity:1;stroke:#c8c8c8;stroke-width:0.26458335px;stroke-linecap:butt;stroke-linejoin:miter;stroke-opacity:1"
       d="m 2.441405,290.87691 c -0.074171,0.48547 -0.4742219,0.69937 -0.9213167,0.87407 0.1480102,-0.30711 0.4793816,-0.61421 0.283482,-0.92132"
       id="path820-9"
       inkscape:connector-curvature="0"
       sodipodi:nodetypes="ccc" />
  </g>
</svg>
