<?xml version="1.0" encoding="UTF-8" standalone="no"?>
<!-- Created with Inkscape (http://www.inkscape.org/) -->

<svg
   xmlns:dc="http://purl.org/dc/elements/1.1/"
   xmlns:cc="http://creativecommons.org/ns#"
   xmlns:rdf="http://www.w3.org/1999/02/22-rdf-syntax-ns#"
   xmlns:svg="http://www.w3.org/2000/svg"
   xmlns="http://www.w3.org/2000/svg"
   xmlns:sodipodi="http://sodipodi.sourceforge.net/DTD/sodipodi-0.dtd"
   xmlns:inkscape="http://www.inkscape.org/namespaces/inkscape"
   width="40"
   height="40"
   viewBox="0 0 10.583333 10.583334"
   version="1.1"
   id="svg5911"
   inkscape:version="0.92.3 (2405546, 2018-03-11)"
   sodipodi:docname="doc.svg">
  <defs
     id="defs5905" />
  <sodipodi:namedview
     id="base"
     pagecolor="#ffffff"
     bordercolor="#666666"
     borderopacity="1.0"
     inkscape:pageopacity="0.0"
     inkscape:pageshadow="2"
     inkscape:zoom="11.313708"
     inkscape:cx="17.057912"
     inkscape:cy="18.339255"
     inkscape:document-units="px"
     inkscape:current-layer="layer1"
     showgrid="false"
     units="px"
     inkscape:window-width="1366"
     inkscape:window-height="716"
     inkscape:window-x="-8"
     inkscape:window-y="-8"
     inkscape:window-maximized="1" />
  <metadata
     id="metadata5908">
    <rdf:RDF>
      <cc:Work
         rdf:about="">
        <dc:format>image/svg+xml</dc:format>
        <dc:type
           rdf:resource="http://purl.org/dc/dcmitype/StillImage" />
        <dc:title></dc:title>
      </cc:Work>
    </rdf:RDF>
  </metadata>
  <g
     inkscape:label="Layer 1"
     inkscape:groupmode="layer"
     id="layer1"
     transform="translate(0,-286.41665)">
    <path
       style="fill:#c8c8c8;fill-opacity:1"
       d="M 5 0 L 5 40 L 35 40 L 35 10 L 26 10 L 25 10 L 25 9 L 25 0 L 5 0 z M 26 0.14257812 L 26 9 L 34.857422 9 L 26 0.14257812 z M 19.076172 27 C 19.616629 27 20.100309 27.113987 20.529297 27.341797 C 20.961663 27.565309 21.328277 27.885799 21.628906 28.302734 C 21.936291 28.732565 22.171847 29.259559 22.333984 29.882812 C 22.499499 30.506066 22.582031 31.213019 22.582031 32.003906 C 22.582031 32.794794 22.497018 33.503307 22.328125 34.130859 C 22.16261 34.754113 21.929536 35.274471 21.628906 35.691406 C 21.318143 36.125535 20.951001 36.452662 20.525391 36.671875 C 20.103158 36.891088 19.620007 37 19.076172 37 C 18.545848 37 18.062697 36.887574 17.626953 36.664062 C 17.194587 36.440551 16.825492 36.116938 16.521484 35.691406 C 16.217477 35.265874 15.983874 34.743956 15.818359 34.125 C 15.656222 33.506044 15.574219 32.799092 15.574219 32.003906 C 15.574219 31.221615 15.656222 30.519346 15.818359 29.900391 C 15.980497 29.277137 16.216581 28.74546 16.527344 28.302734 C 16.824595 27.881501 17.193691 27.559449 17.632812 27.335938 C 18.075312 27.112426 18.555982 27 19.076172 27 z M 27.441406 27.025391 C 27.846749 27.025391 28.250378 27.08824 28.652344 27.212891 C 29.057687 27.337541 29.506833 27.557318 30 27.871094 L 30 29.384766 L 29.923828 29.384766 C 29.508351 28.94204 29.096221 28.619989 28.6875 28.417969 C 28.278779 28.215949 27.841145 28.115234 27.375 28.115234 C 26.993302 28.115234 26.649182 28.194478 26.341797 28.353516 C 26.03779 28.508255 25.765219 28.751062 25.525391 29.082031 C 25.292318 29.404404 25.110252 29.812336 24.978516 30.306641 C 24.850157 30.796647 24.787109 31.36502 24.787109 32.009766 C 24.787109 32.684599 24.85813 33.264292 25 33.75 C 25.145248 34.235708 25.330324 34.632321 25.556641 34.9375 C 25.793091 35.255574 26.068672 35.491745 26.382812 35.646484 C 26.700331 35.796925 27.033468 35.871094 27.384766 35.871094 C 27.8678 35.871094 28.321908 35.767257 28.744141 35.556641 C 29.166373 35.346024 29.561501 35.028655 29.929688 34.607422 L 30 34.607422 L 30 36.103516 C 29.814218 36.206675 29.646144 36.304267 29.494141 36.394531 C 29.345515 36.484796 29.149456 36.578873 28.90625 36.677734 C 28.700201 36.759402 28.475628 36.828888 28.232422 36.884766 C 27.992594 36.944942 27.726043 36.974609 27.435547 36.974609 C 26.888334 36.974609 26.390662 36.877017 25.941406 36.683594 C 25.495529 36.485872 25.106421 36.178654 24.775391 35.761719 C 24.451116 35.35338 24.198029 34.836537 24.015625 34.208984 C 23.833221 33.577134 23.742188 32.843636 23.742188 32.009766 C 23.742188 31.218878 23.830211 30.511926 24.005859 29.888672 C 24.181508 29.265418 24.434595 28.738424 24.765625 28.308594 C 25.086522 27.891658 25.473148 27.574682 25.925781 27.355469 C 26.381792 27.136255 26.887437 27.025391 27.441406 27.025391 z M 8 27.199219 L 9.8847656 27.199219 C 10.621139 27.199219 11.206306 27.268704 11.638672 27.40625 C 12.074416 27.539497 12.441558 27.724531 12.742188 27.960938 C 13.255622 28.369276 13.656241 28.912665 13.943359 29.591797 C 14.230477 30.270929 14.373047 31.077034 14.373047 32.009766 C 14.373047 32.882321 14.224458 33.673593 13.923828 34.382812 C 13.626577 35.092032 13.228967 35.642058 12.732422 36.033203 C 12.38788 36.303996 12.003735 36.498788 11.578125 36.619141 C 11.155893 36.739493 10.596758 36.800781 9.9042969 36.800781 L 8 36.800781 L 8 27.199219 z M 19.082031 28.101562 C 18.315257 28.101562 17.710606 28.441962 17.271484 29.121094 C 16.835741 29.795927 16.619141 30.757399 16.619141 32.003906 C 16.619141 33.263309 16.841232 34.227902 17.287109 34.898438 C 17.732987 35.564674 18.332146 35.896484 19.082031 35.896484 C 19.831916 35.896484 20.426641 35.564674 20.869141 34.898438 C 21.315018 34.227902 21.539062 33.263309 21.539062 32.003906 C 21.539062 30.757399 21.318028 29.795927 20.878906 29.121094 C 20.439785 28.441962 19.84205 28.101563 19.082031 28.101562 z M 9.0039062 28.294922 L 9.0039062 35.703125 L 9.9453125 35.703125 C 10.428346 35.703125 10.848978 35.658624 11.207031 35.568359 C 11.568462 35.478095 11.900542 35.311409 12.201172 35.066406 C 12.576114 34.761227 12.855233 34.357978 13.041016 33.859375 C 13.230176 33.360772 13.326172 32.738139 13.326172 31.990234 C 13.326172 31.238031 13.221674 30.603687 13.015625 30.087891 C 12.809576 29.572094 12.502471 29.165723 12.09375 28.869141 C 11.796498 28.654226 11.480892 28.507449 11.146484 28.425781 C 10.812076 28.339815 10.411457 28.294922 9.9453125 28.294922 L 9.0039062 28.294922 z "
       transform="matrix(0.26458334,0,0,0.26458334,0,286.41665)"
       id="rect3333" />
  </g>
</svg>
