<?xml version="1.0" encoding="UTF-8" standalone="no"?>
<!-- Created with Inkscape (http://www.inkscape.org/) -->

<svg
   xmlns:dc="http://purl.org/dc/elements/1.1/"
   xmlns:cc="http://creativecommons.org/ns#"
   xmlns:rdf="http://www.w3.org/1999/02/22-rdf-syntax-ns#"
   xmlns:svg="http://www.w3.org/2000/svg"
   xmlns="http://www.w3.org/2000/svg"
   xmlns:sodipodi="http://sodipodi.sourceforge.net/DTD/sodipodi-0.dtd"
   xmlns:inkscape="http://www.inkscape.org/namespaces/inkscape"
   width="40"
   height="40"
   viewBox="0 0 10.583333 10.583334"
   version="1.1"
   id="svg5911"
   inkscape:version="0.92.3 (2405546, 2018-03-11)"
   sodipodi:docname="docx.svg">
  <defs
     id="defs5905" />
  <sodipodi:namedview
     id="base"
     pagecolor="#ffffff"
     bordercolor="#666666"
     borderopacity="1.0"
     inkscape:pageopacity="0.0"
     inkscape:pageshadow="2"
     inkscape:zoom="11.313708"
     inkscape:cx="17.057912"
     inkscape:cy="18.339255"
     inkscape:document-units="px"
     inkscape:current-layer="layer1"
     showgrid="false"
     units="px"
     inkscape:window-width="1366"
     inkscape:window-height="716"
     inkscape:window-x="-8"
     inkscape:window-y="-8"
     inkscape:window-maximized="1" />
  <metadata
     id="metadata5908">
    <rdf:RDF>
      <cc:Work
         rdf:about="">
        <dc:format>image/svg+xml</dc:format>
        <dc:type
           rdf:resource="http://purl.org/dc/dcmitype/StillImage" />
        <dc:title></dc:title>
      </cc:Work>
    </rdf:RDF>
  </metadata>
  <g
     inkscape:label="Layer 1"
     inkscape:groupmode="layer"
     id="layer1"
     transform="translate(0,-286.41665)">
    <path
       style="fill:#c8c8c8;fill-opacity:1"
       d="M 5 0 L 5 40 L 35 40 L 35 10 L 26 10 L 25 10 L 25 9 L 25 0 L 5 0 z M 26 0.14257812 L 26 9 L 34.857422 9 L 26 0.14257812 z M 17.488281 27 C 17.951244 27 18.366898 27.113987 18.734375 27.341797 C 19.104745 27.565309 19.418258 27.885799 19.675781 28.302734 C 19.939091 28.732565 20.140408 29.259559 20.279297 29.882812 C 20.421079 30.506066 20.492188 31.213019 20.492188 32.003906 C 20.492188 32.794794 20.418113 33.503307 20.273438 34.130859 C 20.131655 34.754113 19.933304 35.274471 19.675781 35.691406 C 19.409578 36.125535 19.093099 36.452662 18.728516 36.671875 C 18.366826 36.891088 17.954138 37 17.488281 37 C 17.033999 37 16.619358 36.887574 16.246094 36.664062 C 15.875723 36.440551 15.561198 36.116938 15.300781 35.691406 C 15.040365 35.265874 14.839048 34.743956 14.697266 34.125 C 14.558377 33.506044 14.488281 32.799092 14.488281 32.003906 C 14.488281 31.221615 14.558377 30.519346 14.697266 29.900391 C 14.836155 29.277137 15.038484 28.74546 15.304688 28.302734 C 15.559317 27.881501 15.873843 27.559449 16.25 27.335938 C 16.629051 27.112426 17.042679 27 17.488281 27 z M 24.654297 27.025391 C 25.001519 27.025391 25.347078 27.08824 25.691406 27.212891 C 26.038628 27.337541 26.423249 27.557318 26.845703 27.871094 L 26.845703 29.384766 L 26.78125 29.384766 C 26.425347 28.94204 26.070819 28.619989 25.720703 28.417969 C 25.370587 28.215949 24.996962 28.115234 24.597656 28.115234 C 24.270689 28.115234 23.974248 28.194478 23.710938 28.353516 C 23.450521 28.508255 23.219112 28.751062 23.013672 29.082031 C 22.814019 29.404404 22.657769 29.812336 22.544922 30.306641 C 22.434968 30.796647 22.378906 31.36502 22.378906 32.009766 C 22.378906 32.684599 22.440972 33.264292 22.5625 33.75 C 22.686921 34.235708 22.845197 34.632321 23.039062 34.9375 C 23.241609 35.255574 23.476997 35.491745 23.746094 35.646484 C 24.018084 35.796925 24.304543 35.871094 24.605469 35.871094 C 25.019242 35.871094 25.407841 35.767257 25.769531 35.556641 C 26.131221 35.346024 26.469763 35.028655 26.785156 34.607422 L 26.845703 34.607422 L 26.845703 36.103516 C 26.68656 36.206675 26.542318 36.304267 26.412109 36.394531 C 26.284795 36.484796 26.116536 36.578873 25.908203 36.677734 C 25.731698 36.759402 25.538411 36.828888 25.330078 36.884766 C 25.124638 36.944942 24.89728 36.974609 24.648438 36.974609 C 24.179687 36.974609 23.753979 36.877017 23.369141 36.683594 C 22.987196 36.485872 22.654659 36.178654 22.371094 35.761719 C 22.093316 35.35338 21.875 34.836537 21.71875 34.208984 C 21.5625 33.577134 21.484375 32.843636 21.484375 32.009766 C 21.484375 31.218878 21.560475 30.511926 21.710938 29.888672 C 21.8614 29.265418 22.077763 28.738424 22.361328 28.308594 C 22.636212 27.891658 22.967737 27.574682 23.355469 27.355469 C 23.746094 27.136255 24.17976 27.025391 24.654297 27.025391 z M 8 27.199219 L 9.6152344 27.199219 C 10.246021 27.199219 10.746817 27.268704 11.117188 27.40625 C 11.490451 27.539497 11.804977 27.724531 12.0625 27.960938 C 12.502315 28.369276 12.845848 28.912665 13.091797 29.591797 C 13.337746 30.270929 13.460938 31.077034 13.460938 32.009766 C 13.460938 32.882321 13.331742 33.673593 13.074219 34.382812 C 12.819589 35.092032 12.480035 35.642058 12.054688 36.033203 C 11.759549 36.303996 11.429036 36.498788 11.064453 36.619141 C 10.702763 36.739493 10.225984 36.800781 9.6328125 36.800781 L 8 36.800781 L 8 27.199219 z M 27.548828 27.199219 L 28.539062 27.199219 L 30.279297 31.099609 L 32.058594 27.199219 L 33 27.199219 L 30.769531 31.945312 L 32.996094 36.800781 L 32.001953 36.800781 L 30.240234 32.847656 L 28.433594 36.800781 L 27.496094 36.800781 L 29.75 32.003906 L 27.548828 27.199219 z M 17.492188 28.101562 C 16.835359 28.101562 16.319517 28.441962 15.943359 29.121094 C 15.570095 29.795927 15.382813 30.757399 15.382812 32.003906 C 15.382812 33.263309 15.573134 34.227902 15.955078 34.898438 C 16.337023 35.564674 16.849826 35.896484 17.492188 35.896484 C 18.134549 35.896484 18.644387 35.564674 19.023438 34.898438 C 19.405382 34.227902 19.597656 33.263309 19.597656 32.003906 C 19.597656 30.757399 19.409361 29.795927 19.033203 29.121094 C 18.657046 28.441962 18.143229 28.101562 17.492188 28.101562 z M 8.859375 28.294922 L 8.859375 35.703125 L 9.6660156 35.703125 C 10.079789 35.703125 10.441334 35.658624 10.748047 35.568359 C 11.057653 35.478095 11.340133 35.311409 11.597656 35.066406 C 11.918837 34.761227 12.159216 34.357978 12.318359 33.859375 C 12.480396 33.360772 12.5625 32.738139 12.5625 31.990234 C 12.5625 31.238031 12.47338 30.603687 12.296875 30.087891 C 12.12037 29.572094 11.857928 29.165723 11.507812 28.869141 C 11.253183 28.654226 10.981771 28.507449 10.695312 28.425781 C 10.408854 28.339815 10.065321 28.294922 9.6660156 28.294922 L 8.859375 28.294922 z "
       transform="matrix(0.26458334,0,0,0.26458334,0,286.41665)"
       id="rect3333" />
  </g>
</svg>
