<?xml version="1.0" encoding="UTF-8" standalone="no"?>
<!-- Created with Inkscape (http://www.inkscape.org/) -->

<svg
   xmlns:dc="http://purl.org/dc/elements/1.1/"
   xmlns:cc="http://creativecommons.org/ns#"
   xmlns:rdf="http://www.w3.org/1999/02/22-rdf-syntax-ns#"
   xmlns:svg="http://www.w3.org/2000/svg"
   xmlns="http://www.w3.org/2000/svg"
   xmlns:sodipodi="http://sodipodi.sourceforge.net/DTD/sodipodi-0.dtd"
   xmlns:inkscape="http://www.inkscape.org/namespaces/inkscape"
   width="40"
   height="40"
   viewBox="0 0 10.583333 10.583334"
   version="1.1"
   id="svg5911"
   inkscape:version="0.92.3 (2405546, 2018-03-11)"
   sodipodi:docname="infob.svg">
  <defs
     id="defs5905" />
  <sodipodi:namedview
     id="base"
     pagecolor="#ffffff"
     bordercolor="#666666"
     borderopacity="1.0"
     inkscape:pageopacity="0.0"
     inkscape:pageshadow="2"
     inkscape:zoom="11.2"
     inkscape:cx="19.036699"
     inkscape:cy="19.551613"
     inkscape:document-units="px"
     inkscape:current-layer="layer1"
     showgrid="false"
     units="px"
     inkscape:window-width="1366"
     inkscape:window-height="716"
     inkscape:window-x="-8"
     inkscape:window-y="-8"
     inkscape:window-maximized="1" />
  <metadata
     id="metadata5908">
    <rdf:RDF>
      <cc:Work
         rdf:about="">
        <dc:format>image/svg+xml</dc:format>
        <dc:type
           rdf:resource="http://purl.org/dc/dcmitype/StillImage" />
        <dc:title></dc:title>
      </cc:Work>
    </rdf:RDF>
  </metadata>
  <g
     inkscape:label="Layer 1"
     inkscape:groupmode="layer"
     id="layer1"
     transform="translate(0,-286.41665)">
    <path
       style="fill:#c8c8c8;fill-opacity:1;stroke:none;stroke-width:1.34939766;stroke-miterlimit:4;stroke-dasharray:none;stroke-opacity:1"
       d="M 20 10 A 10 10 0 0 0 10 20 A 10 10 0 0 0 20 30 A 10 10 0 0 0 30 20 A 10 10 0 0 0 20 10 z M 20 14 A 1.5 1.5 0 0 1 21.5 15.5 A 1.5 1.5 0 0 1 20 17 A 1.5 1.5 0 0 1 18.5 15.5 A 1.5 1.5 0 0 1 20 14 z M 18.498047 18.496094 L 21.503906 18.496094 L 21.503906 26.498047 L 18.498047 26.498047 L 18.498047 18.496094 z "
       transform="matrix(0.26458334,0,0,0.26458334,0,286.41665)"
       id="path812" />
  </g>
</svg>
