<?xml version="1.0" encoding="UTF-8" standalone="no"?>
<!-- Created with Inkscape (http://www.inkscape.org/) -->

<svg
   xmlns:dc="http://purl.org/dc/elements/1.1/"
   xmlns:cc="http://creativecommons.org/ns#"
   xmlns:rdf="http://www.w3.org/1999/02/22-rdf-syntax-ns#"
   xmlns:svg="http://www.w3.org/2000/svg"
   xmlns="http://www.w3.org/2000/svg"
   xmlns:sodipodi="http://sodipodi.sourceforge.net/DTD/sodipodi-0.dtd"
   xmlns:inkscape="http://www.inkscape.org/namespaces/inkscape"
   width="40"
   height="40"
   viewBox="0 0 10.583333 10.583334"
   version="1.1"
   id="svg5911"
   inkscape:version="0.92.3 (2405546, 2018-03-11)"
   sodipodi:docname="jpeg.svg">
  <defs
     id="defs5905" />
  <sodipodi:namedview
     id="base"
     pagecolor="#ffffff"
     bordercolor="#666666"
     borderopacity="1.0"
     inkscape:pageopacity="0.0"
     inkscape:pageshadow="2"
     inkscape:zoom="11.313708"
     inkscape:cx="17.057912"
     inkscape:cy="18.339255"
     inkscape:document-units="px"
     inkscape:current-layer="layer1"
     showgrid="false"
     units="px"
     inkscape:window-width="1366"
     inkscape:window-height="716"
     inkscape:window-x="-8"
     inkscape:window-y="-8"
     inkscape:window-maximized="1" />
  <metadata
     id="metadata5908">
    <rdf:RDF>
      <cc:Work
         rdf:about="">
        <dc:format>image/svg+xml</dc:format>
        <dc:type
           rdf:resource="http://purl.org/dc/dcmitype/StillImage" />
        <dc:title></dc:title>
      </cc:Work>
    </rdf:RDF>
  </metadata>
  <g
     inkscape:label="Layer 1"
     inkscape:groupmode="layer"
     id="layer1"
     transform="translate(0,-286.41665)">
    <path
       style="fill:#c8c8c8;fill-opacity:1"
       d="M 5 0 L 5 40 L 35 40 L 35 10 L 26 10 L 25 10 L 25 9 L 25 0 L 5 0 z M 26 0.14257812 L 26 9 L 34.857422 9 L 26 0.14257812 z M 30.193359 27 C 30.628708 27 31.070949 27.067407 31.523438 27.201172 C 31.979354 27.330622 32.469665 27.552193 32.994141 27.867188 L 32.994141 29.388672 L 32.902344 29.388672 C 32.796077 29.285112 32.641702 29.148754 32.439453 28.980469 C 32.237204 28.812184 32.039143 28.672737 31.84375 28.560547 C 31.607222 28.426782 31.336815 28.316769 31.035156 28.230469 C 30.736925 28.139854 30.39808 28.09375 30.017578 28.09375 C 29.160592 28.09375 28.482902 28.442005 27.982422 29.136719 C 27.48537 29.827118 27.236328 30.763004 27.236328 31.945312 C 27.236328 33.192346 27.496531 34.162708 28.017578 34.857422 C 28.538626 35.547821 29.248363 35.892578 30.146484 35.892578 C 30.475567 35.892578 30.803252 35.851516 31.128906 35.769531 C 31.457989 35.687546 31.745376 35.582575 31.992188 35.453125 L 31.992188 33.089844 L 29.941406 33.089844 L 29.941406 31.964844 L 33 31.964844 L 33 36.099609 C 32.581791 36.341249 32.124005 36.553145 31.626953 36.734375 C 31.133329 36.91129 30.656132 37 30.193359 37 C 29.596897 37 29.049786 36.896573 28.552734 36.689453 C 28.055682 36.482333 27.6309 36.172052 27.28125 35.757812 C 26.928172 35.339258 26.656809 34.81708 26.464844 34.191406 C 26.272879 33.561417 26.175781 32.825799 26.175781 31.984375 C 26.175781 30.443922 26.533081 29.228733 27.246094 28.339844 C 27.962534 27.44664 28.945588 27 30.193359 27 z M 8.9726562 27.173828 L 11.609375 27.173828 L 11.609375 34.306641 C 11.609375 35.15238 11.403541 35.804329 10.992188 36.261719 C 10.584262 36.719108 10.036673 36.947266 9.3476562 36.947266 C 9.1831149 36.947266 8.9636887 36.92946 8.6894531 36.890625 C 8.4152176 36.856105 8.185109 36.811546 8 36.759766 L 8 35.5625 L 8.0566406 35.5625 C 8.1971863 35.62291 8.3704952 35.685275 8.5761719 35.75 C 8.7818485 35.814725 8.9930239 35.847656 9.2089844 35.847656 C 9.5243553 35.847656 9.7738754 35.803506 9.9589844 35.712891 C 10.147521 35.622276 10.285873 35.492504 10.375 35.324219 C 10.467554 35.151619 10.526786 34.939723 10.550781 34.689453 C 10.578205 34.439183 10.591797 34.150205 10.591797 33.822266 L 10.591797 28.197266 L 8.9726562 28.197266 L 8.9726562 27.173828 z M 13.59375 27.173828 L 15.671875 27.173828 C 16.13122 27.173828 16.521045 27.224974 16.839844 27.324219 C 17.158643 27.419149 17.440688 27.570224 17.6875 27.777344 C 17.978875 28.023298 18.203643 28.328538 18.361328 28.695312 C 18.522442 29.062087 18.603516 29.526941 18.603516 30.087891 C 18.603516 30.515075 18.541853 30.912522 18.421875 31.279297 C 18.305325 31.641756 18.14222 31.955127 17.929688 32.222656 C 17.665736 32.554911 17.354075 32.806325 16.994141 32.974609 C 16.634206 33.138579 16.17933 33.220703 15.630859 33.220703 L 14.613281 33.220703 L 14.613281 36.8125 L 13.59375 36.8125 L 13.59375 27.173828 z M 19.949219 27.173828 L 24.994141 27.173828 L 24.994141 28.314453 L 20.96875 28.314453 L 20.96875 30.955078 L 24.994141 30.955078 L 24.994141 32.09375 L 20.96875 32.09375 L 20.96875 35.673828 L 24.994141 35.673828 L 24.994141 36.8125 L 19.949219 36.8125 L 19.949219 27.173828 z M 14.613281 28.275391 L 14.613281 32.126953 L 15.470703 32.126953 C 15.882056 32.126953 16.217514 32.080849 16.474609 31.990234 C 16.731705 31.895304 16.940449 31.745773 17.101562 31.542969 C 17.262676 31.335849 17.376275 31.11932 17.441406 30.890625 C 17.509965 30.66193 17.542969 30.40393 17.542969 30.119141 C 17.542969 29.786886 17.496851 29.497908 17.404297 29.251953 C 17.311742 29.005998 17.170959 28.80573 16.982422 28.650391 C 16.817881 28.516626 16.630501 28.421329 16.417969 28.365234 C 16.208864 28.304824 15.943321 28.275391 15.621094 28.275391 L 14.613281 28.275391 z "
       transform="matrix(0.26458334,0,0,0.26458334,0,286.41665)"
       id="rect3333" />
  </g>
</svg>
