<?xml version="1.0" encoding="UTF-8" standalone="no"?>
<!-- Created with Inkscape (http://www.inkscape.org/) -->

<svg
   xmlns:dc="http://purl.org/dc/elements/1.1/"
   xmlns:cc="http://creativecommons.org/ns#"
   xmlns:rdf="http://www.w3.org/1999/02/22-rdf-syntax-ns#"
   xmlns:svg="http://www.w3.org/2000/svg"
   xmlns="http://www.w3.org/2000/svg"
   xmlns:sodipodi="http://sodipodi.sourceforge.net/DTD/sodipodi-0.dtd"
   xmlns:inkscape="http://www.inkscape.org/namespaces/inkscape"
   width="40"
   height="40"
   viewBox="0 0 10.583333 10.583334"
   version="1.1"
   id="svg5911"
   inkscape:version="0.92.3 (2405546, 2018-03-11)"
   sodipodi:docname="jpg.svg">
  <defs
     id="defs5905" />
  <sodipodi:namedview
     id="base"
     pagecolor="#ffffff"
     bordercolor="#666666"
     borderopacity="1.0"
     inkscape:pageopacity="0.0"
     inkscape:pageshadow="2"
     inkscape:zoom="11.313708"
     inkscape:cx="17.057912"
     inkscape:cy="18.339255"
     inkscape:document-units="px"
     inkscape:current-layer="layer1"
     showgrid="false"
     units="px"
     inkscape:window-width="1366"
     inkscape:window-height="716"
     inkscape:window-x="-8"
     inkscape:window-y="-8"
     inkscape:window-maximized="1" />
  <metadata
     id="metadata5908">
    <rdf:RDF>
      <cc:Work
         rdf:about="">
        <dc:format>image/svg+xml</dc:format>
        <dc:type
           rdf:resource="http://purl.org/dc/dcmitype/StillImage" />
        <dc:title></dc:title>
      </cc:Work>
    </rdf:RDF>
  </metadata>
  <g
     inkscape:label="Layer 1"
     inkscape:groupmode="layer"
     id="layer1"
     transform="translate(0,-286.41665)">
    <path
       style="fill:#c8c8c8;fill-opacity:1"
       d="M 5 0 L 5 40 L 35 40 L 35 10 L 26 10 L 25 10 L 25 9 L 25 0 L 5 0 z M 26 0.14257812 L 26 9 L 34.857422 9 L 26 0.14257812 z M 26.630859 27 C 27.1532 27 27.68561 27.067407 28.228516 27.201172 C 28.775534 27.330622 29.364864 27.552193 29.994141 27.867188 L 29.994141 29.388672 L 29.882812 29.388672 C 29.755312 29.285112 29.570787 29.148754 29.328125 28.980469 C 29.085463 28.812184 28.845764 28.672737 28.611328 28.560547 C 28.327537 28.426782 28.004515 28.316769 27.642578 28.230469 C 27.284754 28.139854 26.878409 28.09375 26.421875 28.09375 C 25.393645 28.09375 24.579002 28.442005 23.978516 29.136719 C 23.382142 29.827118 23.083984 30.763004 23.083984 31.945312 C 23.083984 33.192346 23.396321 34.162708 24.021484 34.857422 C 24.646648 35.547821 25.498587 35.892578 26.576172 35.892578 C 26.971012 35.892578 27.363179 35.851516 27.753906 35.769531 C 28.148746 35.687546 28.494886 35.582575 28.791016 35.453125 L 28.791016 33.089844 L 26.330078 33.089844 L 26.330078 31.964844 L 30 31.964844 L 30 36.099609 C 29.498224 36.341249 28.949889 36.553145 28.353516 36.734375 C 27.761255 36.91129 27.186103 37 26.630859 37 C 25.915212 37 25.260436 36.896573 24.664062 36.689453 C 24.067689 36.482333 23.560143 36.172052 23.140625 35.757812 C 22.716994 35.339258 22.388527 34.81708 22.158203 34.191406 C 21.92788 33.561417 21.8125 32.825799 21.8125 31.984375 C 21.8125 30.443922 22.240216 29.228733 23.095703 28.339844 C 23.955303 27.44664 25.133757 27 26.630859 27 z M 9.1660156 27.175781 L 12.330078 27.175781 L 12.330078 34.306641 C 12.330078 35.15238 12.083394 35.804329 11.589844 36.261719 C 11.100406 36.719108 10.443884 36.949219 9.6171875 36.949219 C 9.4197674 36.949219 9.1552053 36.92946 8.8261719 36.890625 C 8.4971384 36.856105 8.2220976 36.811546 8 36.759766 L 8 35.5625 L 8.0683594 35.5625 C 8.236989 35.62291 8.4446311 35.685275 8.6914062 35.75 C 8.9381814 35.814725 9.1901049 35.847656 9.4492188 35.847656 C 9.8276072 35.847656 10.127512 35.803506 10.349609 35.712891 C 10.57582 35.622276 10.742673 35.492504 10.849609 35.324219 C 10.960658 35.151619 11.031756 34.939723 11.060547 34.689453 C 11.09345 34.439183 11.109375 34.150205 11.109375 33.822266 L 11.109375 28.197266 L 9.1660156 28.197266 L 9.1660156 27.175781 z M 14.712891 27.175781 L 17.205078 27.175781 C 17.756209 27.175781 18.222967 27.224974 18.605469 27.324219 C 18.98797 27.419149 19.326917 27.570224 19.623047 27.777344 C 19.972645 28.023298 20.242446 28.328538 20.431641 28.695312 C 20.624948 29.062087 20.720703 29.526941 20.720703 30.087891 C 20.720703 30.515075 20.649812 30.912522 20.505859 31.279297 C 20.36602 31.641756 20.16711 31.955127 19.912109 32.222656 C 19.595415 32.554911 19.222872 32.806325 18.791016 32.974609 C 18.359159 33.138579 17.814317 33.220703 17.15625 33.220703 L 15.933594 33.220703 L 15.933594 36.8125 L 14.712891 36.8125 L 14.712891 27.175781 z M 15.933594 28.275391 L 15.933594 32.126953 L 16.964844 32.126953 C 17.458394 32.126953 17.8595 32.080849 18.167969 31.990234 C 18.476438 31.895304 18.726615 31.745774 18.919922 31.542969 C 19.113229 31.335849 19.248026 31.11932 19.326172 30.890625 C 19.40843 30.66193 19.451172 30.40393 19.451172 30.119141 C 19.451172 29.786886 19.394252 29.497908 19.283203 29.251953 C 19.172154 29.005998 19.003554 28.80573 18.777344 28.650391 C 18.579924 28.516626 18.35461 28.421329 18.099609 28.365234 C 17.848721 28.304824 17.529192 28.275391 17.142578 28.275391 L 15.933594 28.275391 z "
       transform="matrix(0.26458334,0,0,0.26458334,0,286.41665)"
       id="rect3333" />
  </g>
</svg>
