<?xml version="1.0" encoding="UTF-8" standalone="no"?>
<!-- Created with Inkscape (http://www.inkscape.org/) -->

<svg
   xmlns:dc="http://purl.org/dc/elements/1.1/"
   xmlns:cc="http://creativecommons.org/ns#"
   xmlns:rdf="http://www.w3.org/1999/02/22-rdf-syntax-ns#"
   xmlns:svg="http://www.w3.org/2000/svg"
   xmlns="http://www.w3.org/2000/svg"
   xmlns:sodipodi="http://sodipodi.sourceforge.net/DTD/sodipodi-0.dtd"
   xmlns:inkscape="http://www.inkscape.org/namespaces/inkscape"
   width="40"
   height="40"
   viewBox="0 0 10.583333 10.583334"
   version="1.1"
   id="svg5911"
   inkscape:version="0.92.3 (2405546, 2018-03-11)"
   sodipodi:docname="png.svg">
  <defs
     id="defs5905" />
  <sodipodi:namedview
     id="base"
     pagecolor="#ffffff"
     bordercolor="#666666"
     borderopacity="1.0"
     inkscape:pageopacity="0.0"
     inkscape:pageshadow="2"
     inkscape:zoom="11.313708"
     inkscape:cx="17.057912"
     inkscape:cy="18.339255"
     inkscape:document-units="px"
     inkscape:current-layer="layer1"
     showgrid="false"
     units="px"
     inkscape:window-width="1366"
     inkscape:window-height="716"
     inkscape:window-x="-8"
     inkscape:window-y="-8"
     inkscape:window-maximized="1" />
  <metadata
     id="metadata5908">
    <rdf:RDF>
      <cc:Work
         rdf:about="">
        <dc:format>image/svg+xml</dc:format>
        <dc:type
           rdf:resource="http://purl.org/dc/dcmitype/StillImage" />
        <dc:title></dc:title>
      </cc:Work>
    </rdf:RDF>
  </metadata>
  <g
     inkscape:label="Layer 1"
     inkscape:groupmode="layer"
     id="layer1"
     transform="translate(0,-286.41665)">
    <path
       style="fill:#c8c8c8;fill-opacity:1"
       d="M 5 0 L 5 40 L 35 40 L 35 10 L 26 10 L 25 10 L 25 9 L 25 0 L 5 0 z M 26 0.14257812 L 26 9 L 34.857422 9 L 26 0.14257812 z M 27.003906 27 C 27.468412 27 27.942988 27.067407 28.425781 27.201172 C 28.912232 27.330622 29.43454 27.552193 29.994141 27.867188 L 29.994141 29.388672 L 29.896484 29.388672 C 29.783101 29.285112 29.618138 29.148754 29.402344 28.980469 C 29.18655 28.812184 28.974104 28.672737 28.765625 28.560547 C 28.513256 28.426782 28.226159 28.316769 27.904297 28.230469 C 27.586092 28.139854 27.224344 28.09375 26.818359 28.09375 C 25.903979 28.09375 25.17853 28.442005 24.644531 29.136719 C 24.11419 29.827118 23.849609 30.763004 23.849609 31.945312 C 23.849609 33.192346 24.12765 34.162708 24.683594 34.857422 C 25.239537 35.547821 25.996807 35.892578 26.955078 35.892578 C 27.3062 35.892578 27.656442 35.851516 28.003906 35.769531 C 28.355028 35.687546 28.660486 35.582575 28.923828 35.453125 L 28.923828 33.089844 L 26.736328 33.089844 L 26.736328 31.964844 L 30 31.964844 L 30 36.099609 C 29.553782 36.341249 29.065497 36.553145 28.535156 36.734375 C 28.008473 36.91129 27.497672 37 27.003906 37 C 26.367497 37 25.784247 36.896573 25.253906 36.689453 C 24.723565 36.482333 24.271505 36.172052 23.898438 35.757812 C 23.521713 35.339258 23.232165 34.81708 23.027344 34.191406 C 22.822522 33.561417 22.71875 32.825799 22.71875 31.984375 C 22.71875 30.443922 23.100563 29.228733 23.861328 28.339844 C 24.62575 27.44664 25.672568 27 27.003906 27 z M 8 27.175781 L 10.216797 27.175781 C 10.706905 27.175781 11.120788 27.224974 11.460938 27.324219 C 11.801087 27.419149 12.103846 27.570224 12.367188 27.777344 C 12.678077 28.023298 12.917691 28.328538 13.085938 28.695312 C 13.257841 29.062087 13.34375 29.526941 13.34375 30.087891 C 13.34375 30.515075 13.280357 30.912522 13.152344 31.279297 C 13.027988 31.641756 12.851766 31.955127 12.625 32.222656 C 12.343371 32.554911 12.010993 32.806325 11.626953 32.974609 C 11.242913 33.138579 10.757079 33.220703 10.171875 33.220703 L 9.0859375 33.220703 L 9.0859375 36.8125 L 8 36.8125 L 8 27.175781 z M 14.78125 27.175781 L 16.464844 27.175781 L 19.998047 35.044922 L 19.998047 27.175781 L 21.013672 27.175781 L 21.013672 36.8125 L 19.669922 36.8125 L 15.796875 28.191406 L 15.796875 36.8125 L 14.78125 36.8125 L 14.78125 27.175781 z M 9.0859375 28.275391 L 9.0859375 32.126953 L 10.001953 32.126953 C 10.440856 32.126953 10.797951 32.080849 11.072266 31.990234 C 11.34658 31.895304 11.570284 31.745773 11.742188 31.542969 C 11.914091 31.335849 12.034023 31.11932 12.103516 30.890625 C 12.176666 30.66193 12.212891 30.40393 12.212891 30.119141 C 12.212891 29.786886 12.163206 29.497908 12.064453 29.251953 C 11.9657 29.005998 11.816398 28.80573 11.615234 28.650391 C 11.439673 28.516626 11.238485 28.421329 11.011719 28.365234 C 10.78861 28.304824 10.505917 28.275391 10.162109 28.275391 L 9.0859375 28.275391 z "
       transform="matrix(0.26458334,0,0,0.26458334,0,286.41665)"
       id="rect3333" />
  </g>
</svg>
