<?xml version="1.0" encoding="UTF-8" standalone="no"?>
<!-- Created with Inkscape (http://www.inkscape.org/) -->

<svg
   xmlns:dc="http://purl.org/dc/elements/1.1/"
   xmlns:cc="http://creativecommons.org/ns#"
   xmlns:rdf="http://www.w3.org/1999/02/22-rdf-syntax-ns#"
   xmlns:svg="http://www.w3.org/2000/svg"
   xmlns="http://www.w3.org/2000/svg"
   xmlns:sodipodi="http://sodipodi.sourceforge.net/DTD/sodipodi-0.dtd"
   xmlns:inkscape="http://www.inkscape.org/namespaces/inkscape"
   id="svg8"
   version="1.1"
   viewBox="0 0 10.583334 10.583334"
   height="40"
   width="40"
   inkscape:version="0.92.3 (2405546, 2018-03-11)"
   sodipodi:docname="ustawienia.svg">
  <sodipodi:namedview
     inkscape:window-maximized="1"
     inkscape:window-y="-8"
     inkscape:window-x="-8"
     inkscape:window-height="716"
     inkscape:window-width="1366"
     units="px"
     showgrid="true"
     inkscape:current-layer="svg8"
     inkscape:document-units="px"
     inkscape:cy="25.812699"
     inkscape:cx="5.6787764"
     inkscape:zoom="11.2"
     inkscape:pageshadow="2"
     inkscape:pageopacity="0.0"
     borderopacity="1.0"
     bordercolor="#666666"
     pagecolor="#ffffff"
     id="base">
    <inkscape:grid
       type="xygrid"
       id="grid10" />
  </sodipodi:namedview>
  <defs
     id="defs2" />
  <metadata
     id="metadata5">
    <rdf:RDF>
      <cc:Work
         rdf:about="">
        <dc:format>image/svg+xml</dc:format>
        <dc:type
           rdf:resource="http://purl.org/dc/dcmitype/StillImage" />
        <dc:title></dc:title>
      </cc:Work>
    </rdf:RDF>
  </metadata>
  <g
     inkscape:label="Layer 1"
     inkscape:groupmode="layer"
     id="layer1"
     transform="translate(0,-286.41664)" />
  <path
     style="fill:#c8c8c8;fill-opacity:1;stroke:#c8c8c8;stroke-width:0.07707427;stroke-miterlimit:4;stroke-dasharray:none;stroke-opacity:1"
     d="m 4.9059604,2.6878888 a 2.6345236,2.6345236 0 0 0 -0.582065,0.1543668 l 0.00947,0.5728029 A 2.107619,2.107619 0 0 0 4.1456533,3.5237327 L 3.6533268,3.2283781 A 2.6345236,2.6345236 0 0 0 3.2301564,3.6560764 L 3.5244821,4.147168 A 2.107619,2.107619 0 0 0 3.4170431,4.3334371 L 2.844034,4.3239692 A 2.6345236,2.6345236 0 0 0 2.6888441,4.9064459 l 0.5005594,0.2780659 a 2.107619,2.107619 0 0 0 -0.00535,0.1072333 2.107619,2.107619 0 0 0 0.00391,0.1080567 L 2.687815,5.6776617 a 2.6345236,2.6345236 0 0 0 0.1545722,0.5818592 l 0.5723917,-0.00947 A 2.107619,2.107619 0 0 0 3.523453,6.4379688 L 3.2285098,6.9302956 A 2.6345236,2.6345236 0 0 0 3.6560025,7.3536717 L 4.1470941,7.0591403 a 2.107619,2.107619 0 0 0 0.1862691,0.1074394 l -0.00947,0.5732149 A 2.6345236,2.6345236 0 0 0 4.9065778,7.8945732 L 5.1846436,7.3940137 a 2.107619,2.107619 0 0 0 0.1070275,0.00533 2.107619,2.107619 0 0 0 0.1080566,-0.00373 l 0.27786,0.4999255 A 2.6345236,2.6345236 0 0 0 6.2596527,7.7413879 L 6.2501847,7.1685837 A 2.107619,2.107619 0 0 0 6.4378944,7.0599096 L 6.9300161,7.3550577 A 2.6345236,2.6345236 0 0 0 7.3533921,6.9276156 L 7.0590665,6.436528 A 2.107619,2.107619 0 0 0 7.1667121,6.2500531 l 0.5730082,0.00947 A 2.6345236,2.6345236 0 0 0 7.894705,5.6770445 L 7.3941446,5.3989786 a 2.107619,2.107619 0 0 0 0.00535,-0.1072333 2.107619,2.107619 0 0 0 -0.0039,-0.1080567 l 0.499941,-0.2778599 a 2.6345236,2.6345236 0 0 0 -0.15416,-0.5818593 l -0.5728031,0.00947 A 2.107619,2.107619 0 0 0 7.059891,4.1457273 L 7.3552456,3.6534006 A 2.6345236,2.6345236 0 0 0 6.9273411,3.2300245 L 6.4364554,3.524556 A 2.107619,2.107619 0 0 0 6.2501862,3.4171169 L 6.2596562,2.843902 A 2.6345236,2.6345236 0 0 0 5.6771775,2.688918 L 5.398906,3.1894777 a 2.107619,2.107619 0 0 0 -0.1072333,-0.00535 2.107619,2.107619 0 0 0 -0.1080567,0.00391 z m 0.3857108,1.023142 A 1.5807143,1.5807143 0 0 1 6.8723856,5.2917451 1.5807143,1.5807143 0 0 1 5.2916712,6.8724596 1.5807143,1.5807143 0 0 1 3.7109569,5.2917451 1.5807143,1.5807143 0 0 1 5.2916712,3.7110308 Z"
     id="path4225"
     inkscape:connector-curvature="0" />
</svg>
