<?xml version="1.0" encoding="UTF-8" standalone="no"?>
<!-- Created with Inkscape (http://www.inkscape.org/) -->

<svg
   xmlns:dc="http://purl.org/dc/elements/1.1/"
   xmlns:cc="http://creativecommons.org/ns#"
   xmlns:rdf="http://www.w3.org/1999/02/22-rdf-syntax-ns#"
   xmlns:svg="http://www.w3.org/2000/svg"
   xmlns="http://www.w3.org/2000/svg"
   xmlns:sodipodi="http://sodipodi.sourceforge.net/DTD/sodipodi-0.dtd"
   xmlns:inkscape="http://www.inkscape.org/namespaces/inkscape"
   width="40"
   height="40"
   viewBox="0 0 10.583333 10.583334"
   version="1.1"
   id="svg5911"
   inkscape:version="0.92.3 (2405546, 2018-03-11)"
   sodipodi:docname="tiff.svg">
  <defs
     id="defs5905" />
  <sodipodi:namedview
     id="base"
     pagecolor="#ffffff"
     bordercolor="#666666"
     borderopacity="1.0"
     inkscape:pageopacity="0.0"
     inkscape:pageshadow="2"
     inkscape:zoom="11.313708"
     inkscape:cx="17.057912"
     inkscape:cy="18.339255"
     inkscape:document-units="px"
     inkscape:current-layer="layer1"
     showgrid="false"
     units="px"
     inkscape:window-width="1366"
     inkscape:window-height="716"
     inkscape:window-x="-8"
     inkscape:window-y="-8"
     inkscape:window-maximized="1" />
  <metadata
     id="metadata5908">
    <rdf:RDF>
      <cc:Work
         rdf:about="">
        <dc:format>image/svg+xml</dc:format>
        <dc:type
           rdf:resource="http://purl.org/dc/dcmitype/StillImage" />
        <dc:title></dc:title>
      </cc:Work>
    </rdf:RDF>
  </metadata>
  <g
     inkscape:label="Layer 1"
     inkscape:groupmode="layer"
     id="layer1"
     transform="translate(0,-286.41665)">
    <path
       style="fill:#c8c8c8;fill-opacity:1"
       d="M 5 0 L 5 40 L 35 40 L 35 10 L 26 10 L 25 10 L 25 9 L 25 0 L 5 0 z M 26 0.14257812 L 26 9 L 34.857422 9 L 26 0.14257812 z M 8 27 L 15.082031 27 L 15.082031 28.181641 L 12.095703 28.181641 L 12.095703 37 L 10.986328 37 L 10.986328 28.181641 L 8 28.181641 L 8 27 z M 15.861328 27 L 19.162109 27 L 19.162109 28.021484 L 18.066406 28.021484 L 18.066406 35.978516 L 19.162109 35.978516 L 19.162109 37 L 15.861328 37 L 15.861328 35.978516 L 16.957031 35.978516 L 16.957031 28.021484 L 15.861328 28.021484 L 15.861328 27 z M 21.064453 27 L 26.400391 27 L 26.400391 28.181641 L 22.175781 28.181641 L 22.175781 31.001953 L 25.806641 31.001953 L 25.806641 32.185547 L 22.175781 32.185547 L 22.175781 37 L 21.064453 37 L 21.064453 27 z M 27.664062 27 L 33 27 L 33 28.181641 L 28.773438 28.181641 L 28.773438 31.001953 L 32.404297 31.001953 L 32.404297 32.185547 L 28.773438 32.185547 L 28.773438 37 L 27.664062 37 L 27.664062 27 z "
       transform="matrix(0.26458334,0,0,0.26458334,0,286.41665)"
       id="rect3333" />
  </g>
</svg>
