<?xml version="1.0" encoding="UTF-8" standalone="no"?>
<!-- Created with Inkscape (http://www.inkscape.org/) -->

<svg
   xmlns:dc="http://purl.org/dc/elements/1.1/"
   xmlns:cc="http://creativecommons.org/ns#"
   xmlns:rdf="http://www.w3.org/1999/02/22-rdf-syntax-ns#"
   xmlns:svg="http://www.w3.org/2000/svg"
   xmlns="http://www.w3.org/2000/svg"
   xmlns:sodipodi="http://sodipodi.sourceforge.net/DTD/sodipodi-0.dtd"
   xmlns:inkscape="http://www.inkscape.org/namespaces/inkscape"
   width="40"
   height="40"
   viewBox="0 0 10.583333 10.583334"
   version="1.1"
   id="svg5911"
   inkscape:version="0.92.3 (2405546, 2018-03-11)"
   sodipodi:docname="xls.svg">
  <defs
     id="defs5905" />
  <sodipodi:namedview
     id="base"
     pagecolor="#ffffff"
     bordercolor="#666666"
     borderopacity="1.0"
     inkscape:pageopacity="0.0"
     inkscape:pageshadow="2"
     inkscape:zoom="11.313708"
     inkscape:cx="-0.35459325"
     inkscape:cy="18.339255"
     inkscape:document-units="px"
     inkscape:current-layer="layer1"
     showgrid="false"
     units="px"
     inkscape:window-width="1366"
     inkscape:window-height="716"
     inkscape:window-x="-8"
     inkscape:window-y="-8"
     inkscape:window-maximized="1" />
  <metadata
     id="metadata5908">
    <rdf:RDF>
      <cc:Work
         rdf:about="">
        <dc:format>image/svg+xml</dc:format>
        <dc:type
           rdf:resource="http://purl.org/dc/dcmitype/StillImage" />
        <dc:title />
      </cc:Work>
    </rdf:RDF>
  </metadata>
  <g
     inkscape:label="Layer 1"
     inkscape:groupmode="layer"
     id="layer1"
     transform="translate(0,-286.41665)">
    <path
       style="fill:#c8c8c8;fill-opacity:1"
       d="M 5 0 L 5 40 L 35 40 L 35 10 L 26 10 L 25 10 L 25 9 L 25 0 L 5 0 z M 26 0.14257812 L 26 9 L 34.857422 9 L 26 0.14257812 z M 26.605469 27 C 27.218206 27 27.779751 27.065695 28.291016 27.195312 C 28.80228 27.32493 29.254256 27.483722 29.648438 27.673828 L 29.648438 29.191406 L 29.566406 29.191406 C 29.23467 28.880324 28.798347 28.62299 28.255859 28.419922 C 27.717275 28.212534 27.165513 28.107422 26.599609 28.107422 C 25.979067 28.107422 25.47818 28.249997 25.099609 28.535156 C 24.724942 28.820315 24.537109 29.189331 24.537109 29.638672 C 24.537109 30.040487 24.631026 30.354993 24.818359 30.583984 C 25.005693 30.812976 25.336357 30.988399 25.808594 31.109375 C 26.058372 31.169863 26.412518 31.243666 26.873047 31.330078 C 27.333576 31.41649 27.724893 31.504971 28.044922 31.595703 C 28.692784 31.785809 29.179979 32.072499 29.507812 32.457031 C 29.835646 32.841564 30 33.379018 30 34.070312 C 30 34.446204 29.91978 34.818297 29.759766 35.185547 C 29.603654 35.552797 29.38256 35.864226 29.097656 36.119141 C 28.785433 36.395658 28.421504 36.612037 28.003906 36.767578 C 27.590211 36.923119 27.091277 37 26.505859 37 C 25.877511 37 25.3101 36.934305 24.806641 36.804688 C 24.307084 36.67507 23.798367 36.48343 23.279297 36.228516 L 23.279297 34.621094 L 23.361328 34.621094 C 23.802343 35.027229 24.31106 35.340197 24.888672 35.560547 C 25.466284 35.780897 26.010216 35.892578 26.517578 35.892578 C 27.235691 35.892578 27.793322 35.743433 28.191406 35.445312 C 28.593393 35.147192 28.794922 34.748821 28.794922 34.251953 C 28.794922 33.824215 28.699049 33.509708 28.507812 33.306641 C 28.320479 33.103573 28.03286 32.944367 27.646484 32.832031 C 27.353775 32.745619 27.036804 32.675308 26.693359 32.619141 C 26.353817 32.562973 25.991848 32.490709 25.609375 32.404297 C 24.836624 32.222832 24.263339 31.914895 23.888672 31.478516 C 23.517907 31.037816 23.332031 30.465975 23.332031 29.761719 C 23.332031 28.953769 23.641172 28.291494 24.257812 27.777344 C 24.874453 27.258873 25.657092 27 26.605469 27 z M 8.0703125 27.175781 L 9.4042969 27.175781 L 11.751953 31.095703 L 14.152344 27.175781 L 15.423828 27.175781 L 12.414062 31.945312 L 15.417969 36.824219 L 14.076172 36.824219 L 11.699219 32.851562 L 9.2636719 36.824219 L 8 36.824219 L 11.039062 32.003906 L 8.0703125 27.175781 z M 16.992188 27.175781 L 18.150391 27.175781 L 18.150391 35.683594 L 22.505859 35.683594 L 22.505859 36.824219 L 16.992188 36.824219 L 16.992188 27.175781 z "
       transform="matrix(0.26458334,0,0,0.26458334,0,286.41665)"
       id="rect3333" />
  </g>
</svg>
