<?xml version="1.0" encoding="UTF-8" standalone="no"?>
<!-- Created with Inkscape (http://www.inkscape.org/) -->

<svg
   xmlns:dc="http://purl.org/dc/elements/1.1/"
   xmlns:cc="http://creativecommons.org/ns#"
   xmlns:rdf="http://www.w3.org/1999/02/22-rdf-syntax-ns#"
   xmlns:svg="http://www.w3.org/2000/svg"
   xmlns="http://www.w3.org/2000/svg"
   xmlns:sodipodi="http://sodipodi.sourceforge.net/DTD/sodipodi-0.dtd"
   xmlns:inkscape="http://www.inkscape.org/namespaces/inkscape"
   width="40"
   height="40"
   viewBox="0 0 10.583333 10.583334"
   version="1.1"
   id="svg5911"
   inkscape:version="0.92.3 (2405546, 2018-03-11)"
   sodipodi:docname="xlsx.svg">
  <defs
     id="defs5905" />
  <sodipodi:namedview
     id="base"
     pagecolor="#ffffff"
     bordercolor="#666666"
     borderopacity="1.0"
     inkscape:pageopacity="0.0"
     inkscape:pageshadow="2"
     inkscape:zoom="11.313708"
     inkscape:cx="17.057912"
     inkscape:cy="18.339255"
     inkscape:document-units="px"
     inkscape:current-layer="layer1"
     showgrid="false"
     units="px"
     inkscape:window-width="1366"
     inkscape:window-height="716"
     inkscape:window-x="-8"
     inkscape:window-y="-8"
     inkscape:window-maximized="1" />
  <metadata
     id="metadata5908">
    <rdf:RDF>
      <cc:Work
         rdf:about="">
        <dc:format>image/svg+xml</dc:format>
        <dc:type
           rdf:resource="http://purl.org/dc/dcmitype/StillImage" />
        <dc:title></dc:title>
      </cc:Work>
    </rdf:RDF>
  </metadata>
  <g
     inkscape:label="Layer 1"
     inkscape:groupmode="layer"
     id="layer1"
     transform="translate(0,-286.41665)">
    <path
       style="fill:#c8c8c8;fill-opacity:1"
       d="M 5 0 L 5 40 L 35 40 L 35 10 L 26 10 L 25 10 L 25 9 L 25 0 L 5 0 z M 26 0.14257812 L 26 9 L 34.857422 9 L 26 0.14257812 z M 23.244141 27 C 23.746187 27 24.206095 27.065695 24.625 27.195312 C 25.043905 27.32493 25.415309 27.483722 25.738281 27.673828 L 25.738281 29.191406 L 25.669922 29.191406 C 25.398113 28.880324 25.04019 28.622989 24.595703 28.419922 C 24.154414 28.212534 23.701955 28.107422 23.238281 28.107422 C 22.729839 28.107422 22.3219 28.249997 22.011719 28.535156 C 21.704735 28.820315 21.550781 29.189331 21.550781 29.638672 C 21.550781 30.040487 21.627758 30.354993 21.78125 30.583984 C 21.934742 30.812976 22.204869 30.988399 22.591797 31.109375 C 22.796453 31.169863 23.087509 31.243666 23.464844 31.330078 C 23.842178 31.41649 24.161613 31.504971 24.423828 31.595703 C 24.954654 31.785809 25.354436 32.072499 25.623047 32.457031 C 25.891658 32.841564 26.025391 33.379018 26.025391 34.070312 C 26.025391 34.446204 25.959233 34.818297 25.828125 35.185547 C 25.700215 35.552797 25.520545 35.864226 25.287109 36.119141 C 25.031289 36.395658 24.732784 36.612037 24.390625 36.767578 C 24.051664 36.923119 23.641772 37 23.162109 37 C 22.647272 37 22.183994 36.934305 21.771484 36.804688 C 21.362173 36.67507 20.944832 36.48343 20.519531 36.228516 L 20.519531 34.621094 L 20.585938 34.621094 C 20.947283 35.027229 21.364624 35.340197 21.837891 35.560547 C 22.311157 35.780897 22.756168 35.892578 23.171875 35.892578 C 23.760261 35.892578 24.216798 35.743433 24.542969 35.445312 C 24.872337 35.147192 25.037109 34.748821 25.037109 34.251953 C 25.037109 33.824215 24.959424 33.509708 24.802734 33.306641 C 24.649242 33.103573 24.414233 32.944367 24.097656 32.832031 C 23.857825 32.745619 23.597808 32.675308 23.316406 32.619141 C 23.038202 32.562973 22.741114 32.490709 22.427734 32.404297 C 21.79458 32.222832 21.324562 31.914895 21.017578 31.478516 C 20.713792 31.037816 20.5625 30.465975 20.5625 29.761719 C 20.5625 28.953769 20.815068 28.291494 21.320312 27.777344 C 21.825557 27.258873 22.467088 27 23.244141 27 z M 8.0566406 27.175781 L 9.1503906 27.175781 L 11.074219 31.095703 L 13.041016 27.175781 L 14.082031 27.175781 L 11.617188 31.945312 L 14.078125 36.824219 L 12.978516 36.824219 L 11.03125 32.851562 L 9.0351562 36.824219 L 8 36.824219 L 10.490234 32.003906 L 8.0566406 27.175781 z M 15.367188 27.175781 L 16.316406 27.175781 L 16.316406 35.683594 L 19.886719 35.683594 L 19.886719 36.824219 L 15.367188 36.824219 L 15.367188 27.175781 z M 26.974609 27.175781 L 28.068359 27.175781 L 29.992188 31.095703 L 31.958984 27.175781 L 33 27.175781 L 30.535156 31.945312 L 32.996094 36.824219 L 31.896484 36.824219 L 29.949219 32.851562 L 27.953125 36.824219 L 26.917969 36.824219 L 29.408203 32.003906 L 26.974609 27.175781 z "
       transform="matrix(0.26458334,0,0,0.26458334,0,286.41665)"
       id="rect3333" />
  </g>
</svg>
