<?xml version="1.0" encoding="UTF-8" standalone="no"?>
<!-- Created with Inkscape (http://www.inkscape.org/) -->

<svg
   xmlns:dc="http://purl.org/dc/elements/1.1/"
   xmlns:cc="http://creativecommons.org/ns#"
   xmlns:rdf="http://www.w3.org/1999/02/22-rdf-syntax-ns#"
   xmlns:svg="http://www.w3.org/2000/svg"
   xmlns="http://www.w3.org/2000/svg"
   xmlns:sodipodi="http://sodipodi.sourceforge.net/DTD/sodipodi-0.dtd"
   xmlns:inkscape="http://www.inkscape.org/namespaces/inkscape"
   width="58"
   height="58"
   viewBox="0 0 15.345839 15.345834"
   version="1.1"
   id="svg8"
   inkscape:version="0.92.3 (2405546, 2018-03-11)"
   sodipodi:docname="activeBackground.svg">
  <defs
     id="defs2" />
  <sodipodi:namedview
     id="base"
     pagecolor="#ffffff"
     bordercolor="#666666"
     borderopacity="1.0"
     inkscape:pageopacity="0.0"
     inkscape:pageshadow="2"
     inkscape:zoom="11.2"
     inkscape:cx="14.138264"
     inkscape:cy="30.4861"
     inkscape:document-units="mm"
     inkscape:current-layer="layer1"
     showgrid="false"
     units="px"
     inkscape:window-width="1920"
     inkscape:window-height="1027"
     inkscape:window-x="-8"
     inkscape:window-y="-8"
     inkscape:window-maximized="1" />
  <metadata
     id="metadata5">
    <rdf:RDF>
      <cc:Work
         rdf:about="">
        <dc:format>image/svg+xml</dc:format>
        <dc:type
           rdf:resource="http://purl.org/dc/dcmitype/StillImage" />
        <dc:title></dc:title>
      </cc:Work>
    </rdf:RDF>
  </metadata>
  <g
     inkscape:label="Layer 1"
     inkscape:groupmode="layer"
     id="layer1"
     transform="translate(0,-281.65398)">
    <path
       style="fill:#ff9600;fill-opacity:1;stroke:none;stroke-width:1.13566363"
       d="M 29 0 L 29 10.5 A 18.5 18.5 0 0 1 33.78125 11.15625 L 36.494141 1.03125 A 29.000001 29.000001 0 0 0 29 0 z M 26.654297 0.1171875 A 29.000001 29.000001 0 0 0 25.216797 0.27929688 A 29.000001 29.000001 0 0 1 26.654297 0.1171875 z M 23.789062 0.49414062 A 29.000001 29.000001 0 0 0 22.365234 0.80078125 A 29.000001 29.000001 0 0 1 23.789062 0.49414062 z M 21.501953 1.0214844 A 29.000001 29.000001 0 0 0 14.533203 3.9414062 L 19.763672 13.003906 A 18.5 18.5 0 0 1 24.212891 11.136719 L 21.501953 1.0214844 z M 37.070312 1.1699219 A 29.000003 29.000003 0 0 1 37.345703 1.2578125 A 29.000001 29.000001 0 0 0 37.070312 1.1699219 z M 43.464844 3.9453125 L 38.236328 13.001953 A 18.5 18.5 0 0 1 42.070312 15.929688 L 49.470703 8.5292969 A 29.000001 29.000001 0 0 0 43.464844 3.9453125 z M 8.5292969 8.5292969 A 29.000001 29.000001 0 0 0 3.9453125 14.535156 L 13.001953 19.763672 A 18.5 18.5 0 0 1 15.929688 15.929688 L 8.5292969 8.5292969 z M 49.939453 8.9726562 A 29.000003 29.000003 0 0 1 49.998047 9.0390625 A 29.000001 29.000001 0 0 0 49.939453 8.9726562 z M 54.058594 14.533203 L 44.996094 19.763672 A 18.5 18.5 0 0 1 46.863281 24.212891 L 56.978516 21.501953 A 29.000001 29.000001 0 0 0 54.058594 14.533203 z M 1.2578125 20.654297 A 29.000001 29.000001 0 0 0 1.1699219 20.929688 A 29.000001 29.000001 0 0 1 1.2578125 20.654297 z M 1.03125 21.505859 A 29.000001 29.000001 0 0 0 0 29 L 10.5 29 A 18.5 18.5 0 0 1 11.15625 24.21875 L 1.03125 21.505859 z M 57.199219 22.365234 A 29.000003 29.000003 0 0 1 57.505859 23.789062 A 29.000001 29.000001 0 0 0 57.199219 22.365234 z M 57.720703 25.216797 A 29.000003 29.000003 0 0 1 57.882812 26.654297 A 29.000001 29.000001 0 0 0 57.720703 25.216797 z M 47.5 29 A 18.5 18.5 0 0 1 46.84375 33.78125 L 56.96875 36.494141 A 29.000001 29.000001 0 0 0 58 29 L 47.5 29 z M 0.1171875 31.345703 A 29.000001 29.000001 0 0 0 0.27929688 32.783203 A 29.000004 29.000004 0 0 1 0.1171875 31.345703 z M 11.136719 33.787109 L 1.0214844 36.498047 A 29.000001 29.000001 0 0 0 3.9414062 43.466797 L 13.003906 38.236328 A 18.5 18.5 0 0 1 11.136719 33.787109 z M 0.49414062 34.210938 A 29.000001 29.000001 0 0 0 0.80078125 35.634766 A 29.000004 29.000004 0 0 1 0.49414062 34.210938 z M 56.830078 37.070312 A 29.000003 29.000003 0 0 1 56.742188 37.345703 A 29.000001 29.000001 0 0 0 56.830078 37.070312 z M 44.998047 38.236328 A 18.5 18.5 0 0 1 42.070312 42.070312 L 49.470703 49.470703 A 29.000001 29.000001 0 0 0 54.054688 43.464844 L 44.998047 38.236328 z M 15.929688 42.070312 L 8.5292969 49.470703 A 29.000001 29.000001 0 0 0 14.535156 54.054688 L 19.763672 44.998047 A 18.5 18.5 0 0 1 15.929688 42.070312 z M 38.236328 44.996094 A 18.5 18.5 0 0 1 33.787109 46.863281 L 36.498047 56.978516 A 29.000001 29.000001 0 0 0 43.466797 54.058594 L 38.236328 44.996094 z M 24.21875 46.84375 L 21.505859 56.96875 A 29.000001 29.000001 0 0 0 29 58 L 29 47.5 A 18.5 18.5 0 0 1 24.21875 46.84375 z M 20.654297 56.742188 A 29.000001 29.000001 0 0 0 20.929688 56.830078 A 29.000004 29.000004 0 0 1 20.654297 56.742188 z M 35.634766 57.199219 A 29.000003 29.000003 0 0 1 34.210938 57.505859 A 29.000001 29.000001 0 0 0 35.634766 57.199219 z M 32.783203 57.720703 A 29.000003 29.000003 0 0 1 31.345703 57.882812 A 29.000001 29.000001 0 0 0 32.783203 57.720703 z "
       transform="matrix(0.26458333,0,0,0.26458333,0,281.65398)"
       id="path4522" />
  </g>
</svg>
