<?xml version="1.0" encoding="UTF-8" standalone="no"?>
<!-- Created with Inkscape (http://www.inkscape.org/) -->

<svg
   xmlns:dc="http://purl.org/dc/elements/1.1/"
   xmlns:cc="http://creativecommons.org/ns#"
   xmlns:rdf="http://www.w3.org/1999/02/22-rdf-syntax-ns#"
   xmlns:svg="http://www.w3.org/2000/svg"
   xmlns="http://www.w3.org/2000/svg"
   xmlns:sodipodi="http://sodipodi.sourceforge.net/DTD/sodipodi-0.dtd"
   xmlns:inkscape="http://www.inkscape.org/namespaces/inkscape"
   width="25.23877mm"
   height="9.1984043mm"
   viewBox="0 0 25.23877 9.1984043"
   version="1.1"
   id="svg8"
   inkscape:version="0.92.4 (5da689c313, 2019-01-14)"
   sodipodi:docname="logo.svg">
  <defs
     id="defs2" />
  <sodipodi:namedview
     id="base"
     pagecolor="#ffffff"
     bordercolor="#666666"
     borderopacity="1.0"
     inkscape:pageopacity="0.0"
     inkscape:pageshadow="2"
     inkscape:zoom="2.8"
     inkscape:cx="113.69574"
     inkscape:cy="28.881135"
     inkscape:document-units="mm"
     inkscape:current-layer="layer1"
     showgrid="false"
     inkscape:window-width="1920"
     inkscape:window-height="1027"
     inkscape:window-x="-8"
     inkscape:window-y="-8"
     inkscape:window-maximized="1"
     fit-margin-top="0"
     fit-margin-left="0"
     fit-margin-right="0"
     fit-margin-bottom="0" />
  <metadata
     id="metadata5">
    <rdf:RDF>
      <cc:Work
         rdf:about="">
        <dc:format>image/svg+xml</dc:format>
        <dc:type
           rdf:resource="http://purl.org/dc/dcmitype/StillImage" />
        <dc:title></dc:title>
      </cc:Work>
    </rdf:RDF>
  </metadata>
  <g
     inkscape:label="Layer 1"
     inkscape:groupmode="layer"
     id="layer1"
     transform="translate(1.0217708e-6,-287.8016)">
    <g
       aria-label="Logo"
       transform="matrix(0.26458333,0,0,0.26458333,-9.9962889,271.78525)"
       clip-path="none"
       style="font-style:normal;font-weight:normal;font-size:40px;line-height:1.25;font-family:sans-serif;letter-spacing:0px;word-spacing:0px;fill:#000000;fill-opacity:1;stroke:none"
       id="flowRoot10">
      <path
         d="m 50.59375,69.46001 v 8.964843 q 0,3.027344 0.527344,3.90625 0.644531,1.035157 2.714843,1.035157 2.226563,0 3.515625,-0.976563 1.289063,-0.976562 1.796875,-3.046875 0.292969,-1.269531 1.328125,-1.269531 1.035157,0 1.679688,0.9375 0.664062,0.917969 0.664062,2.402344 0,2.421875 -1.796875,5.175781 -0.566406,0.878906 -0.996093,1.191406 -0.429688,0.332031 -1.035157,0.332031 L 54.65625,87.58501 H 41.003906 q -1.347656,0 -1.894531,-0.3125 -0.800781,-0.449219 -0.800781,-1.347657 0,-0.546875 0.253906,-0.800781 0.273437,-0.273437 1.289062,-0.761719 1.113282,-0.527343 1.425782,-1.484375 0.253906,-0.800781 0.253906,-4.667968 0,-1.796875 -0.09766,-5.175782 -0.09766,-3.242187 -0.117188,-4.882812 0,-1.5625 -0.253906,-2.128906 -0.234375,-0.585938 -1.015625,-0.839844 -1.289063,-0.449219 -1.640625,-0.722656 -0.625,-0.488282 -0.625,-1.113282 0,-1.425781 2.363281,-2.167968 2.011719,-0.644532 5.390625,-0.644532 3.789063,0 5.664063,0.390625 2.421875,0.527344 2.421875,2.109375 0,0.644532 -0.332032,0.957032 -0.3125,0.3125 -1.5625,0.839843 -0.742187,0.332032 -0.9375,1.132813 -0.195312,0.800781 -0.195312,3.496094 z"
         style="font-style:normal;font-variant:normal;font-weight:normal;font-stretch:normal;font-size:40px;font-family:'Cooper Black';-inkscape-font-specification:'Cooper Black, Normal';font-variant-ligatures:normal;font-variant-caps:normal;font-variant-numeric:normal;font-feature-settings:normal;text-align:center;writing-mode:lr-tb;text-anchor:middle"
         id="path26"
         inkscape:connector-curvature="0" />
      <path
         d="m 75.398437,68.112353 q 3.574219,0 6.269532,1.855469 1.933593,1.328125 3.105468,3.457031 1.210938,2.226563 1.210938,4.648438 0,4.238281 -3.886719,7.207031 -3.710937,2.832031 -8.496094,2.832031 -4.667968,0 -7.558593,-2.65625 -2.8125,-2.578125 -2.8125,-6.71875 0,-4.609375 3.4375,-7.539062 3.59375,-3.085938 8.730468,-3.085938 z m -1.5625,4.511719 q -0.859375,0 -1.386718,0.644531 -0.507813,0.625 -0.507813,1.679688 0,1.171875 0.429688,3.203125 0.449218,2.011719 1.054687,3.574219 0.605469,1.601562 1.972656,1.601562 1.738282,0 1.738282,-2.207031 0,-1.640625 -0.449219,-3.730469 -0.429688,-2.089844 -1.054688,-3.398437 -0.644531,-1.328125 -1.796875,-1.367188 z"
         style="font-style:normal;font-variant:normal;font-weight:normal;font-stretch:normal;font-size:40px;font-family:'Cooper Black';-inkscape-font-specification:'Cooper Black, Normal';font-variant-ligatures:normal;font-variant-caps:normal;font-variant-numeric:normal;font-feature-settings:normal;text-align:center;writing-mode:lr-tb;text-anchor:middle"
         id="path28"
         inkscape:connector-curvature="0" />
      <path
         d="m 108.13281,67.077197 q 0.48828,0 0.85938,0.566406 0.37109,0.546875 0.37109,1.289063 0,0.800781 -0.50781,1.816406 -0.48828,1.015625 -1.19141,1.621094 -0.44922,0.390625 -0.44922,0.625 0,0.05859 0.0391,0.46875 0.0586,0.410156 0.0586,0.742187 0,2.324219 -1.5625,3.90625 -1.40625,1.40625 -3.63281,2.1875 -2.207034,0.78125 -4.863284,0.78125 -0.644531,0 -1.269531,-0.07813 -0.507813,-0.05859 -0.78125,-0.05859 -1.035156,0 -1.035156,1.035156 0,0.664062 0.664062,1.054687 0.683594,0.371094 1.835938,0.371094 0.78125,0 2.304687,-0.214844 3.203124,-0.449218 4.726564,-0.449218 2.30469,0 3.57422,0.761718 1.01562,0.585938 1.60156,1.640625 0.60547,1.054688 0.60547,2.265625 0,1.972657 -1.44531,3.828125 -1.71875,2.1875 -5.0586,3.242188 -2.61718,0.820312 -6.054685,0.820312 -4.335938,0 -7.03125,-1.328125 -1.25,-0.625 -1.992188,-1.640625 -0.742187,-1.015625 -0.742187,-2.109375 0,-0.761718 0.410156,-1.40625 0.429688,-0.644531 1.074219,-0.917968 0.585937,-0.234375 0.585937,-0.507813 0,-0.214844 -0.488281,-0.625 -1.5625,-1.308594 -1.5625,-2.714844 0,-0.9375 0.742188,-1.933593 0.761718,-0.996094 1.875,-1.542969 0.46875,-0.234375 0.46875,-0.46875 0,-0.273438 -0.585938,-0.820313 -2.011719,-1.855468 -2.011719,-4.335937 0,-1.308594 0.703125,-2.5 0.722657,-1.191406 1.992188,-2.03125 3.144531,-2.050781 6.972656,-2.050781 1.523438,0 3.398439,0.390625 1.77734,0.351562 2.44141,0.351562 2.1289,0 4.23828,-1.679687 0.46875,-0.351563 0.72265,-0.351563 z m -10.605466,4.042969 q -0.976563,0 -1.582032,0.742187 -0.585937,0.742188 -0.585937,1.972657 0,2.109375 0.644531,3.378906 0.644531,1.269531 1.699219,1.269531 1.035156,0 1.640625,-0.78125 0.605469,-0.800781 0.605469,-2.128906 0,-2.089844 -0.644532,-3.242188 -0.625,-1.171875 -1.777343,-1.210937 z m -4.257813,17.773437 q -0.488281,0 -0.488281,0.566407 0,1.152343 1.25,1.855468 1.25,0.722657 3.242187,0.722657 1.914063,0 2.988283,-0.507813 1.09375,-0.507812 1.09375,-1.425781 0,-0.488281 -0.41016,-0.839844 -0.41015,-0.332031 -1.015623,-0.332031 -0.3125,0 -0.898437,0.07813 -1.09375,0.175781 -2.441406,0.175781 -0.996094,0 -1.914063,-0.09766 -0.683594,-0.05859 -1.113281,-0.15625 -0.195313,-0.03906 -0.292969,-0.03906 z"
         style="font-style:normal;font-variant:normal;font-weight:normal;font-stretch:normal;font-size:40px;font-family:'Cooper Black';-inkscape-font-specification:'Cooper Black, Normal';font-variant-ligatures:normal;font-variant-caps:normal;font-variant-numeric:normal;font-feature-settings:normal;text-align:center;writing-mode:lr-tb;text-anchor:middle"
         id="path30"
         inkscape:connector-curvature="0" />
      <path
         d="m 122.58594,68.112353 q 3.57422,0 6.26953,1.855469 1.93359,1.328125 3.10547,3.457031 1.21093,2.226563 1.21093,4.648438 0,4.238281 -3.88671,7.207031 -3.71094,2.832031 -8.4961,2.832031 -4.66797,0 -7.55859,-2.65625 -2.8125,-2.578125 -2.8125,-6.71875 0,-4.609375 3.4375,-7.539062 3.59375,-3.085938 8.73047,-3.085938 z m -1.5625,4.511719 q -0.85938,0 -1.38672,0.644531 -0.50781,0.625 -0.50781,1.679688 0,1.171875 0.42968,3.203125 0.44922,2.011719 1.05469,3.574219 0.60547,1.601562 1.97266,1.601562 1.73828,0 1.73828,-2.207031 0,-1.640625 -0.44922,-3.730469 -0.42969,-2.089844 -1.05469,-3.398437 -0.64453,-1.328125 -1.79687,-1.367188 z"
         style="font-style:normal;font-variant:normal;font-weight:normal;font-stretch:normal;font-size:40px;font-family:'Cooper Black';-inkscape-font-specification:'Cooper Black, Normal';font-variant-ligatures:normal;font-variant-caps:normal;font-variant-numeric:normal;font-feature-settings:normal;text-align:center;writing-mode:lr-tb;text-anchor:middle"
         id="path32"
         inkscape:connector-curvature="0" />
    </g>
  </g>
</svg>
